<?xml version="1.0" encoding="iso-8859-1"?>
<!-- Generator: Adobe Illustrator 19.0.0, SVG Export Plug-In . SVG Version: 6.00 Build 0)  -->
<svg version="1.1" id="Layer_1" xmlns="http://www.w3.org/2000/svg" xmlns:xlink="http://www.w3.org/1999/xlink" x="0px" y="0px"
	 viewBox="0 0 512.001 512.001" style="enable-background:new 0 0 512.001 512.001;" xml:space="preserve">
<path style="fill:#9BDC6E;" d="M468.069,502.001H43.931C25.192,502.001,10,486.81,10,468.07V256.001c0-135.862,110.138-246,246-246
	l0,0c135.862,0,246,110.138,246,246V468.07C502,486.81,486.809,502.001,468.069,502.001z"/>
<path style="fill:#9B5A50;" d="M256,31.832c123.607,0,224.17,100.562,224.17,224.169v224.17H31.831V256
	C31.831,132.393,132.393,31.832,256,31.832 M256,13.898C122.504,13.898,13.897,122.505,13.897,256v224.17l0,0
	c0,9.904,8.029,17.934,17.934,17.934l0,0h448.34l0,0c9.904,0,17.934-8.029,17.934-17.934l0,0V256
	C498.104,122.505,389.497,13.898,256,13.898L256,13.898z"/>
<g>
	<path style="fill:#FFFFFF;" d="M118.198,463.301H57.204c-2.874,0-5.203-2.329-5.203-5.203V341.104c0-2.874,2.33-5.204,5.203-5.204
		h60.994c2.873,0,5.203,2.33,5.203,5.204v116.993C123.4,460.972,121.071,463.301,118.198,463.301z"/>
	<path style="fill:#FFFFFF;" d="M454.797,463.301h-60.994c-2.873,0-5.203-2.329-5.203-5.203V341.104c0-2.874,2.33-5.204,5.203-5.204
		h60.994c2.874,0,5.203,2.33,5.203,5.204v116.993C460,460.972,457.671,463.301,454.797,463.301z"/>
	<path style="fill:#FFFFFF;" d="M342.597,463.301h-60.994c-2.874,0-5.203-2.329-5.203-5.203V341.104c0-2.874,2.33-5.204,5.203-5.204
		h60.994c2.874,0,5.203,2.33,5.203,5.204v116.993C347.8,460.972,345.471,463.301,342.597,463.301z"/>
	<path style="fill:#FFFFFF;" d="M230.397,463.301h-60.994c-2.874,0-5.203-2.329-5.203-5.203V341.104
		c0-2.874,2.329-5.204,5.203-5.204h60.994c2.874,0,5.203,2.33,5.203,5.204v116.993C235.6,460.972,233.271,463.301,230.397,463.301z"
		/>
</g>
<g>
	<circle style="fill:#B9E678;" cx="79.29" cy="247.71" r="33.29"/>
	<circle style="fill:#B9E678;" cx="432.71" cy="247.71" r="33.29"/>
	<circle style="fill:#B9E678;" cx="256" cy="80" r="33.29"/>
	<circle style="fill:#B9E678;" cx="135.71" cy="127.36" r="33.29"/>
	<circle style="fill:#B9E678;" cx="376.29" cy="127.36" r="33.29"/>
	<path style="fill:#B9E678;" d="M341.815,296.001H171.186c-5.625,0-10.186-4.561-10.186-10.186v-67.628
		c0-5.625,4.561-10.186,10.186-10.186h170.629c5.625,0,10.186,4.561,10.186,10.186v67.628
		C352,291.44,347.44,296.001,341.815,296.001z"/>
</g>
<g>
	<path style="fill:#2D2B29;" d="M491.176,154.704c-13.346-30.944-32.412-58.601-56.669-82.201
		C384.552,23.899,318.611-1.815,248.812,0.1C181.666,1.941,118.889,30.263,72.045,79.849C25.586,129.027,0,193.417,0,261.16v210.854
		c0,22.048,17.938,39.987,39.987,39.987h432.026c22.048,0,39.987-17.938,39.987-39.987V256.001
		C512,220.825,504.994,186.744,491.176,154.704z M496,472.014c0,13.227-10.76,23.987-23.987,23.987H39.987
		C26.76,496.001,16,485.241,16,472.014V261.16C16,129.556,120.636,19.62,249.25,16.094c2.276-0.063,4.539-0.093,6.807-0.093
		c62.905,0,122.089,23.989,167.292,67.97C470.199,129.553,496,190.648,496,256.001V472.014z"/>
	<path style="fill:#2D2B29;" d="M120,328.001H56c-8.822,0-16,7.178-16,16v112c0,8.822,7.178,16,16,16h64c8.822,0,16-7.178,16-16
		v-112C136,335.179,128.823,328.001,120,328.001z M120,456.001H56v-112L120,344V456.001z"/>
	<path style="fill:#2D2B29;" d="M72,400.001c0,8.822,7.178,16,16,16s16-7.178,16-16s-7.178-16-16-16S72,391.179,72,400.001z"/>
	<path style="fill:#2D2B29;" d="M72,368.001c2.11,0,4.17-0.85,5.66-2.34c1.49-1.49,2.34-3.549,2.34-5.66c0-2.11-0.85-4.17-2.34-5.66
		s-3.55-2.34-5.66-2.34s-4.17,0.85-5.66,2.34c-1.49,1.49-2.34,3.55-2.34,5.66c0,2.1,0.85,4.17,2.34,5.66
		C67.831,367.151,69.891,368.001,72,368.001z"/>
	<path style="fill:#2D2B29;" d="M104,368.001c2.11,0,4.17-0.85,5.66-2.34c1.49-1.49,2.34-3.549,2.34-5.66
		c0-2.11-0.85-4.17-2.34-5.66s-3.55-2.34-5.66-2.34s-4.17,0.85-5.66,2.34c-1.49,1.49-2.34,3.55-2.34,5.66
		c0,2.11,0.85,4.17,2.34,5.66C99.831,367.151,101.891,368.001,104,368.001z"/>
	<path style="fill:#2D2B29;" d="M104,432.001c-2.11,0-4.17,0.85-5.66,2.34c-1.49,1.49-2.34,3.55-2.34,5.66
		c0,2.11,0.85,4.17,2.34,5.66c1.49,1.491,3.55,2.34,5.66,2.34c2.1,0,4.17-0.85,5.66-2.34c1.49-1.49,2.34-3.56,2.34-5.66
		c0-2.11-0.85-4.17-2.34-5.66C108.17,432.851,106.11,432.001,104,432.001z"/>
	<path style="fill:#2D2B29;" d="M72,448.001c2.11,0,4.17-0.85,5.66-2.34c1.49-1.49,2.34-3.549,2.34-5.66c0-2.11-0.85-4.17-2.34-5.66
		s-3.55-2.34-5.66-2.34s-4.17,0.85-5.66,2.34c-1.49,1.49-2.34,3.55-2.34,5.66c0,2.11,0.85,4.17,2.34,5.66
		C67.831,447.151,69.9,448.001,72,448.001z"/>
	<path style="fill:#2D2B29;" d="M232,328.001h-64c-8.822,0-16,7.178-16,16v112c0,8.822,7.178,16,16,16h64c8.822,0,16-7.178,16-16
		v-112C248,335.179,240.823,328.001,232,328.001z M232,456.001h-64v-112L232,344V456.001z"/>
	<path style="fill:#2D2B29;" d="M184,400.001c0,8.822,7.178,16,16,16s16-7.178,16-16s-7.178-16-16-16S184,391.179,184,400.001z"/>
	<path style="fill:#2D2B29;" d="M184,368.001c2.1,0,4.17-0.85,5.66-2.34s2.34-3.549,2.34-5.66c0-2.11-0.85-4.17-2.34-5.66
		c-1.49-1.49-3.56-2.34-5.66-2.34c-2.11,0-4.17,0.85-5.66,2.34s-2.34,3.55-2.34,5.66c0,2.11,0.85,4.17,2.34,5.66
		C179.831,367.151,181.891,368.001,184,368.001z"/>
	<path style="fill:#2D2B29;" d="M216,368.001c2.11,0,4.17-0.85,5.66-2.34s2.34-3.549,2.34-5.66c0-2.11-0.85-4.17-2.34-5.66
		c-1.49-1.49-3.55-2.34-5.66-2.34s-4.17,0.85-5.66,2.34s-2.34,3.55-2.34,5.66c0,2.11,0.85,4.17,2.34,5.66
		C211.831,367.151,213.891,368.001,216,368.001z"/>
	<path style="fill:#2D2B29;" d="M216,432.001c-2.11,0-4.17,0.85-5.66,2.34s-2.34,3.55-2.34,5.66c0,2.11,0.85,4.17,2.34,5.66
		c1.49,1.491,3.55,2.34,5.66,2.34c2.1,0,4.17-0.85,5.66-2.34s2.34-3.56,2.34-5.66c0-2.11-0.85-4.17-2.34-5.66
		C220.17,432.851,218.11,432.001,216,432.001z"/>
	<path style="fill:#2D2B29;" d="M184,448.001c2.11,0,4.17-0.85,5.66-2.34s2.34-3.549,2.34-5.66c0-2.11-0.85-4.17-2.34-5.66
		c-1.49-1.49-3.55-2.34-5.66-2.34s-4.17,0.85-5.66,2.34s-2.34,3.55-2.34,5.66c0,2.11,0.85,4.17,2.34,5.66
		C179.831,447.151,181.9,448.001,184,448.001z"/>
	<path style="fill:#2D2B29;" d="M344,328.001h-64c-8.822,0-16,7.178-16,16v112c0,8.822,7.178,16,16,16h64c8.822,0,16-7.178,16-16
		v-112C360,335.179,352.823,328.001,344,328.001z M344,456.001h-64v-112L344,344V456.001z"/>
	<path style="fill:#2D2B29;" d="M296,400.001c0,8.822,7.178,16,16,16s16-7.178,16-16s-7.178-16-16-16S296,391.179,296,400.001z"/>
	<path style="fill:#2D2B29;" d="M296,368.001c2.11,0,4.17-0.85,5.66-2.34s2.34-3.56,2.34-5.66c0-2.11-0.85-4.17-2.34-5.66
		s-3.55-2.34-5.66-2.34s-4.17,0.85-5.66,2.34s-2.34,3.55-2.34,5.66c0,2.11,0.85,4.17,2.34,5.66
		C291.831,367.151,293.891,368.001,296,368.001z"/>
	<path style="fill:#2D2B29;" d="M328,368.001c2.11,0,4.17-0.85,5.66-2.34s2.34-3.549,2.34-5.66c0-2.11-0.85-4.17-2.34-5.66
		s-3.55-2.34-5.66-2.34s-4.17,0.85-5.66,2.34s-2.34,3.55-2.34,5.66c0,2.11,0.85,4.17,2.34,5.66
		C323.831,367.151,325.891,368.001,328,368.001z"/>
	<path style="fill:#2D2B29;" d="M328,432.001c-2.11,0-4.17,0.85-5.66,2.34s-2.34,3.55-2.34,5.66c0,2.11,0.85,4.17,2.34,5.66
		c1.49,1.491,3.55,2.34,5.66,2.34c2.1,0,4.17-0.85,5.66-2.34s2.34-3.549,2.34-5.66c0-2.11-0.85-4.17-2.34-5.66
		S330.101,432.001,328,432.001z"/>
	<path style="fill:#2D2B29;" d="M296,448.001c2.1,0,4.17-0.85,5.66-2.34s2.34-3.549,2.34-5.66c0-2.11-0.85-4.17-2.34-5.66
		s-3.55-2.34-5.66-2.34s-4.17,0.85-5.66,2.34s-2.34,3.55-2.34,5.66c0,2.1,0.85,4.17,2.34,5.66
		C291.831,447.151,293.891,448.001,296,448.001z"/>
	<path style="fill:#2D2B29;" d="M456,328.001h-64c-8.822,0-16,7.178-16,16v112c0,8.822,7.178,16,16,16h64c8.822,0,16-7.178,16-16
		v-112C472,335.179,464.823,328.001,456,328.001z M456,456.001h-64v-112L456,344V456.001z"/>
	<path style="fill:#2D2B29;" d="M408,400.001c0,8.822,7.178,16,16,16s16-7.178,16-16s-7.178-16-16-16S408,391.179,408,400.001z"/>
	<path style="fill:#2D2B29;" d="M408,368.001c2.1,0,4.17-0.85,5.66-2.34s2.34-3.549,2.34-5.66c0-2.11-0.85-4.17-2.34-5.66
		s-3.55-2.34-5.66-2.34s-4.17,0.85-5.66,2.34s-2.34,3.55-2.34,5.66c0,2.11,0.85,4.17,2.34,5.66
		C403.831,367.151,405.891,368.001,408,368.001z"/>
	<path style="fill:#2D2B29;" d="M440,368.001c2.1,0,4.17-0.85,5.66-2.34s2.34-3.56,2.34-5.66s-0.85-4.17-2.34-5.66
		s-3.56-2.34-5.66-2.34c-2.11,0-4.17,0.85-5.66,2.34s-2.34,3.55-2.34,5.66c0,2.11,0.85,4.17,2.34,5.66
		C435.831,367.151,437.9,368.001,440,368.001z"/>
	<path style="fill:#2D2B29;" d="M440,432.001c-2.11,0-4.17,0.85-5.66,2.34s-2.34,3.55-2.34,5.66c0,2.11,0.85,4.17,2.34,5.66
		c1.49,1.491,3.56,2.34,5.66,2.34s4.17-0.85,5.66-2.34s2.34-3.56,2.34-5.66s-0.85-4.17-2.34-5.66S442.101,432.001,440,432.001z"/>
	<path style="fill:#2D2B29;" d="M408,448.001c2.1,0,4.17-0.85,5.66-2.34s2.34-3.549,2.34-5.66c0-2.11-0.85-4.17-2.34-5.66
		s-3.55-2.34-5.66-2.34s-4.17,0.85-5.66,2.34s-2.34,3.55-2.34,5.66c0,2.11,0.85,4.17,2.34,5.66
		C403.831,447.151,405.891,448.001,408,448.001z"/>
	<path style="fill:#2D2B29;" d="M336.002,200.001c-4.418,0-8.001,3.582-8.001,8s3.581,8,8,8c4.411,0,8,3.589,8,8v56
		c0,4.411-3.589,8-8,8H176c-4.411,0-8-3.589-8-8v-56c0-4.411,3.589-8,8-8h128.001c4.418,0,8-3.582,8-8s-3.582-8-8-8H176
		c-13.233,0-24,10.767-24,24v56c0,13.233,10.767,24,24,24h160c13.233,0,24-10.767,24-24v-56
		C360,210.768,349.235,200.001,336.002,200.001z"/>
	<path style="fill:#2D2B29;" d="M392,248.001c0,22.057,17.944,40,40,40s40-17.943,40-40c0-3.385-0.425-6.752-1.264-10.006
		c-1.103-4.278-5.46-6.853-9.743-5.75c-4.279,1.102-6.854,5.465-5.751,9.743c0.503,1.951,0.758,3.975,0.758,6.014
		c0,13.233-10.767,24-24,24s-24-10.767-24-24c0-13.233,10.767-24,24-24c2.039,0,4.062,0.255,6.013,0.758
		c4.279,1.101,8.641-1.472,9.744-5.75c1.103-4.279-1.472-8.64-5.75-9.744c-3.254-0.838-6.621-1.264-10.006-1.264
		C409.944,208.001,392,225.945,392,248.001z"/>
	<path style="fill:#2D2B29;" d="M80,288.001c22.056,0,40-17.943,40-40c0-3.385-0.425-6.752-1.264-10.006
		c-1.103-4.278-5.46-6.853-9.743-5.75c-4.279,1.102-6.854,5.465-5.751,9.743c0.503,1.951,0.758,3.975,0.758,6.014
		c0,13.233-10.767,24-24,24s-24-10.767-24-24c0-13.233,10.767-24,24-24c2.039,0,4.062,0.255,6.013,0.758
		c4.279,1.101,8.641-1.472,9.744-5.75c1.103-4.279-1.472-8.64-5.75-9.744c-3.254-0.838-6.621-1.264-10.006-1.264
		c-22.056,0-40,17.944-40,40C40,270.058,57.944,288.001,80,288.001z"/>
	<path style="fill:#2D2B29;" d="M176,128.001c0-3.385-0.425-6.752-1.264-10.006c-1.103-4.278-5.462-6.854-9.743-5.75
		c-4.279,1.102-6.854,5.465-5.751,9.743c0.503,1.951,0.758,3.975,0.758,6.014c0,13.233-10.767,24-24,24s-24-10.767-24-24
		s10.767-24,24-24c2.039,0,4.062,0.255,6.013,0.758c4.279,1.101,8.641-1.472,9.744-5.75c1.103-4.279-1.472-8.64-5.75-9.744
		c-3.254-0.838-6.621-1.264-10.006-1.264c-22.056,0-40,17.944-40,40c0,22.057,17.944,40,40,40S176,150.058,176,128.001z"/>
	<path style="fill:#2D2B29;" d="M376,168.001c22.056,0,40-17.943,40-40c0-3.385-0.425-6.752-1.264-10.006
		c-1.103-4.278-5.461-6.854-9.743-5.75c-4.279,1.102-6.854,5.465-5.751,9.743c0.503,1.951,0.758,3.975,0.758,6.014
		c0,13.233-10.767,24-24,24s-24-10.767-24-24s10.767-24,24-24c2.039,0,4.062,0.255,6.013,0.758c4.278,1.101,8.641-1.472,9.744-5.75
		c1.103-4.279-1.472-8.64-5.75-9.744c-3.254-0.838-6.621-1.264-10.006-1.264c-22.056,0-40,17.944-40,40
		C336,150.058,353.944,168.001,376,168.001z"/>
	<path style="fill:#2D2B29;" d="M256,120.001c22.056,0,40-17.943,40-40c0-3.385-0.425-6.752-1.264-10.006
		c-1.103-4.278-5.461-6.854-9.743-5.75c-4.279,1.102-6.854,5.465-5.751,9.743c0.503,1.951,0.758,3.975,0.758,6.014
		c0,13.233-10.767,24-24,24s-24-10.767-24-24s10.767-24,24-24c2.039,0,4.062,0.255,6.013,0.758c4.279,1.101,8.641-1.472,9.744-5.75
		c1.103-4.279-1.472-8.64-5.75-9.744c-3.254-0.838-6.621-1.264-10.006-1.264c-22.056,0-40,17.944-40,40
		C216,102.058,233.944,120.001,256,120.001z"/>
</g>
<g>
</g>
<g>
</g>
<g>
</g>
<g>
</g>
<g>
</g>
<g>
</g>
<g>
</g>
<g>
</g>
<g>
</g>
<g>
</g>
<g>
</g>
<g>
</g>
<g>
</g>
<g>
</g>
<g>
</g>
</svg>
