<?xml version="1.0" encoding="iso-8859-1"?>
<!-- Generator: Adobe Illustrator 19.0.0, SVG Export Plug-In . SVG Version: 6.00 Build 0)  -->
<svg version="1.1" id="Layer_1" xmlns="http://www.w3.org/2000/svg" xmlns:xlink="http://www.w3.org/1999/xlink" x="0px" y="0px"
	 viewBox="0 0 512 512" style="enable-background:new 0 0 512 512;" xml:space="preserve">
<path style="fill:#727C7C;" d="M439.242,299.116H72.758c-23.812,0-43.116-19.304-43.116-43.116V72.758
	c0-23.812,19.304-43.116,43.116-43.116h366.484c23.812,0,43.116,19.304,43.116,43.116V256
	C482.358,279.812,463.054,299.116,439.242,299.116z"/>
<path style="fill:#C7D7D8;" d="M53.668,385.347c-22.073-36.02-34.805-78.383-34.805-123.724
	C18.863,130.656,125.033,24.487,256,24.487s237.137,106.169,237.137,237.137c0,45.341-12.732,87.704-34.805,123.724H53.668z"/>
<path style="fill:#A9B9BB;" d="M320.674,137.432c0,17.86-14.477,32.337-32.337,32.337c-17.86,0-32.337-14.477-32.337-32.337
	s14.477-32.337,32.337-32.337C306.196,105.095,320.674,119.572,320.674,137.432z M245.221,256c-11.906,0-21.558,9.651-21.558,21.558
	s9.651,21.558,21.558,21.558s21.558-9.651,21.558-21.558C266.779,265.651,257.127,256,245.221,256z M110.484,180.547
	c-20.836,0-37.726,16.891-37.726,37.726S89.648,256,110.484,256s37.726-16.891,37.726-37.726S131.32,180.547,110.484,180.547z
	 M433.853,72.758c-14.882,0-26.947,12.065-26.947,26.947s12.065,26.947,26.947,26.947c14.883,0,26.947-12.065,26.947-26.947
	S448.735,72.758,433.853,72.758z M35.032,8.084c-14.882,0-26.947,12.065-26.947,26.947s12.065,26.947,26.947,26.947
	s26.947-12.065,26.947-26.947S49.914,8.084,35.032,8.084z"/>
<path style="fill:#DBCB9C;" d="M503.916,482.358c0,11.906-9.651,21.558-21.558,21.558H29.642c-11.906,0-21.558-9.651-21.558-21.558
	v-97.011h495.832V482.358z"/>
<path style="fill:#FF8950;" d="M439.242,307.2h-97.011v-53.895h97.011c5.953,0,10.779,4.826,10.779,10.779v32.337
	C450.021,302.374,445.195,307.2,439.242,307.2z"/>
<path style="fill:#DBCB9C;" d="M422.9,429.002L422.9,429.002H261.563l0,0c0-40.19,32.58-72.771,72.771-72.771h15.797
	C390.32,356.231,422.9,388.812,422.9,429.002z"/>
<path d="M48.505,450.021c0,4.465-3.62,8.084-8.084,8.084H8.084c-4.465,0-8.084-3.62-8.084-8.084s3.62-8.084,8.084-8.084h32.337
	C44.886,441.937,48.505,445.556,48.505,450.021z M253.305,385.347c0-4.465-3.62-8.084-8.084-8.084H58.248
	c-20.493-34.974-31.301-74.854-31.301-115.64C26.947,135.323,129.7,32.571,256,32.571c44.569,0,87.77,12.808,124.931,37.038
	c3.739,2.438,8.748,1.384,11.187-2.357c2.438-3.74,1.383-8.748-2.357-11.187c-39.796-25.947-86.05-39.661-133.762-39.661
	c-65.502,0-127.081,25.507-173.398,71.823S10.779,196.123,10.779,261.623c0,40.514,9.969,80.205,28.938,115.64H8.084
	c-4.465,0-8.084,3.62-8.084,8.084s3.62,8.084,8.084,8.084H53.54c0.045,0,0.091,0.001,0.136,0.001s0.091,0,0.136-0.001h191.409
	C249.686,393.432,253.305,389.812,253.305,385.347z M0,35.032C0,15.716,15.716,0,35.032,0s35.032,15.716,35.032,35.032
	S54.347,70.063,35.032,70.063S0,54.347,0,35.032z M16.168,35.032c0,10.401,8.463,18.863,18.863,18.863s18.863-8.463,18.863-18.863
	s-8.463-18.863-18.863-18.863S16.168,24.631,16.168,35.032z M398.821,99.705c0-19.316,15.716-35.032,35.032-35.032
	s35.032,15.716,35.032,35.032s-15.716,35.032-35.032,35.032S398.821,119.021,398.821,99.705z M414.989,99.705
	c0,10.401,8.463,18.863,18.863,18.863c10.401,0,18.863-8.463,18.863-18.863s-8.463-18.863-18.863-18.863
	C423.452,80.842,414.989,89.305,414.989,99.705z M460.437,141.114c-3.919,2.139-5.364,7.049-3.225,10.969
	c18.214,33.382,27.841,71.261,27.841,109.541c0,40.784-10.808,80.665-31.301,115.64h-14.51c-4.465,0-8.084,3.62-8.084,8.084
	s3.62,8.084,8.084,8.084h18.946c0.045,0,0.091,0.001,0.136,0.001s0.091,0,0.136-0.001h34.677c4.465,0,8.084-3.62,8.084-8.084
	s-3.62-8.084-8.084-8.084h-20.854c18.969-35.435,28.938-75.125,28.938-115.64c0-40.979-10.31-81.535-29.816-117.286
	C469.267,140.419,464.357,138.976,460.437,141.114z M288.337,161.684c-4.465,0-8.084,3.62-8.084,8.084
	c0,4.465,3.62,8.084,8.084,8.084c22.289,0,40.421-18.132,40.421-40.421s-18.132-40.421-40.421-40.421
	c-22.289,0-40.421,18.132-40.421,40.421c0,9.964,3.657,19.536,10.297,26.953c2.979,3.326,8.09,3.609,11.416,0.631
	s3.609-8.089,0.631-11.416c-3.982-4.447-6.175-10.189-6.175-16.167c0-13.373,10.879-24.253,24.253-24.253
	c13.373,0,24.253,10.879,24.253,24.253S301.71,161.684,288.337,161.684z M245.221,291.032c-7.43,0-13.474-6.044-13.474-13.474
	c0-4.465-3.62-8.084-8.084-8.084c-4.465,0-8.084,3.62-8.084,8.084c0,16.345,13.297,29.642,29.642,29.642
	s29.642-13.297,29.642-29.642c0-16.345-13.297-29.642-29.642-29.642c-4.465,0-8.084,3.62-8.084,8.084
	c0,4.465,3.62,8.084,8.084,8.084c7.43,0,13.474,6.044,13.474,13.474S252.651,291.032,245.221,291.032z M385.347,463.495h-75.453
	c-4.465,0-8.084,3.62-8.084,8.084s3.62,8.084,8.084,8.084h75.453c4.465,0,8.084-3.62,8.084-8.084S389.812,463.495,385.347,463.495z
	 M202.105,463.495h-21.558c-4.465,0-8.084,3.62-8.084,8.084s3.62,8.084,8.084,8.084h21.558c4.465,0,8.084-3.62,8.084-8.084
	S206.57,463.495,202.105,463.495z M503.916,495.832h-32.337c-4.465,0-8.084,3.62-8.084,8.084s3.62,8.084,8.084,8.084h32.337
	c4.465,0,8.084-3.62,8.084-8.084S508.38,495.832,503.916,495.832z M463.495,428.463c0,4.465-3.62,8.084-8.084,8.084H234.442
	c-4.465,0-8.084-3.62-8.084-8.084s3.62-8.084,8.084-8.084h19.438c4.065-40.739,38.498-72.675,80.268-72.771V241.987
	c0-4.465,3.62-8.084,8.084-8.084s8.084,3.62,8.084,8.084v2.695h88.926c10.401,0,18.863,8.463,18.863,18.863v32.337
	c0,10.401-8.463,18.863-18.863,18.863h-88.926v32.863c41.77,0.096,76.203,32.031,80.268,72.771h24.827
	C459.875,420.379,463.495,423.999,463.495,428.463z M350.316,298.577h88.926c1.485,0,2.695-1.209,2.695-2.695v-32.337
	c0-1.485-1.209-2.695-2.695-2.695h-88.926V298.577z M414.314,420.379c-3.989-31.868-31.251-56.602-64.183-56.602h-15.797
	c-32.932,0-60.194,24.734-64.183,56.602H414.314z M110.484,188.632c4.465,0,8.084-3.62,8.084-8.084c0-4.465-3.62-8.084-8.084-8.084
	c-25.26,0-45.811,20.55-45.811,45.811s20.55,45.811,45.811,45.811s45.811-20.55,45.811-45.811c0-12.411-4.882-24.031-13.746-32.718
	c-3.188-3.125-8.307-3.073-11.432,0.114c-3.125,3.188-3.074,8.307,0.114,11.432c5.737,5.622,8.896,13.142,8.896,21.172
	c0,16.345-13.297,29.642-29.642,29.642s-29.642-13.297-29.642-29.642S94.139,188.632,110.484,188.632z M105.095,495.832H72.758
	c-4.465,0-8.084,3.62-8.084,8.084S68.293,512,72.758,512h32.337c4.465,0,8.084-3.62,8.084-8.084S109.559,495.832,105.095,495.832z
	 M126.653,420.379h-21.558c-4.465,0-8.084,3.62-8.084,8.084s3.62,8.084,8.084,8.084h21.558c4.465,0,8.084-3.62,8.084-8.084
	S131.117,420.379,126.653,420.379z"/>
<g>
</g>
<g>
</g>
<g>
</g>
<g>
</g>
<g>
</g>
<g>
</g>
<g>
</g>
<g>
</g>
<g>
</g>
<g>
</g>
<g>
</g>
<g>
</g>
<g>
</g>
<g>
</g>
<g>
</g>
</svg>
